<?xml version="1.0" encoding="UTF-8" standalone="no"?>
<!-- Created with Inkscape (http://www.inkscape.org/) -->

<svg
   xmlns:dc="http://purl.org/dc/elements/1.1/"
   xmlns:cc="http://creativecommons.org/ns#"
   xmlns:rdf="http://www.w3.org/1999/02/22-rdf-syntax-ns#"
   xmlns:svg="http://www.w3.org/2000/svg"
   xmlns="http://www.w3.org/2000/svg"
   xmlns:sodipodi="http://sodipodi.sourceforge.net/DTD/sodipodi-0.dtd"
   xmlns:inkscape="http://www.inkscape.org/namespaces/inkscape"
   width="2000"
   height="500"
   viewBox="0 0 529.16667 132.29167"
   version="1.1"
   id="svg8"
   sodipodi:docname="raku-banner-v1.svg"
   inkscape:version="0.92.4 5da689c313, 2019-01-14">
  <defs
     id="defs2" />
  <sodipodi:namedview
     id="base"
     pagecolor="#ffffff"
     bordercolor="#484848"
     borderopacity="1"
     inkscape:pageopacity="0.0"
     inkscape:pageshadow="2"
     inkscape:zoom="0.2339813"
     inkscape:cx="545.3607"
     inkscape:cy="18.664896"
     inkscape:document-units="px"
     inkscape:current-layer="layer1"
     showgrid="false"
     units="px"
     inkscape:showpageshadow="false"
     inkscape:pagecheckerboard="true"
     inkscape:window-width="1598"
     inkscape:window-height="872"
     inkscape:window-x="1"
     inkscape:window-y="27"
     inkscape:window-maximized="0"
     inkscape:snap-page="true"
     showborder="false" />
  <metadata
     id="metadata5">
    <rdf:RDF>
      <cc:Work
         rdf:about="">
        <dc:format>image/svg+xml</dc:format>
        <dc:type
           rdf:resource="http://purl.org/dc/dcmitype/StillImage" />
        <dc:title></dc:title>
        <cc:license
           rdf:resource="http://creativecommons.org/licenses/by-nc-sa/4.0/" />
        <dc:creator>
          <cc:Agent>
            <dc:title>Luis F. Uceta</dc:title>
          </cc:Agent>
        </dc:creator>
      </cc:Work>
      <cc:License
         rdf:about="http://creativecommons.org/licenses/by-nc-sa/4.0/">
        <cc:permits
           rdf:resource="http://creativecommons.org/ns#Reproduction" />
        <cc:permits
           rdf:resource="http://creativecommons.org/ns#Distribution" />
        <cc:requires
           rdf:resource="http://creativecommons.org/ns#Notice" />
        <cc:requires
           rdf:resource="http://creativecommons.org/ns#Attribution" />
        <cc:prohibits
           rdf:resource="http://creativecommons.org/ns#CommercialUse" />
        <cc:permits
           rdf:resource="http://creativecommons.org/ns#DerivativeWorks" />
        <cc:requires
           rdf:resource="http://creativecommons.org/ns#ShareAlike" />
      </cc:License>
    </rdf:RDF>
  </metadata>
  <g
     inkscape:label="Layer 1"
     inkscape:groupmode="layer"
     id="layer1"
     transform="translate(0,-164.70832)">
    <g
       id="g1803"
       transform="translate(1329.8071,-179.66305)">
      <rect
         y="344.37137"
         x="-1329.8071"
         height="132.29167"
         width="529.16669"
         id="rect1745"
         style="opacity:1;vector-effect:none;fill:#e6e6e6;fill-opacity:1;stroke:none;stroke-width:0.85276473;stroke-linecap:butt;stroke-linejoin:bevel;stroke-miterlimit:4;stroke-dasharray:none;stroke-dashoffset:0;stroke-opacity:1;paint-order:stroke fill markers" />
      <g
         transform="translate(0,160.71722)"
         id="g1771">
        <g
           transform="translate(0,-1.0177265e-5)"
           id="g1765">
          <g
             id="g1763">
            <path
               inkscape:connector-curvature="0"
               id="path1747"
               transform="matrix(0.26458334,0,0,0.26458334,0,17.599989)"
               d="m -4802.9238,708.88672 c -13.909,-0.009 -69.545,1.41068 -69.545,24.69336 -0.7664,4.31021 3.9261,17.41575 9.2012,29.15625 7.6691,17.06872 12.4063,36.2734 12.4063,37.29297 0.012,1.8455 12.6098,40.80711 1.2285,60.18554 l -16.084,33.79493 c 0,0 -10.6772,27.69932 -11.7344,31.73242 -10.4058,39.68662 -9.366,62.82966 14.9942,90.66991 0,0 26.6795,28.421 30.4492,29.291 3.7704,0.8699 33.8984,0.5801 33.8984,0.5801 0,0 29.6128,0.2899 33.3828,-0.5801 3.7701,-0.87 30.4512,-29.291 30.4512,-29.291 24.3606,-27.84025 25.3996,-50.98329 14.9942,-90.66991 -1.0576,-4.0331 -11.7344,-31.73242 -11.7344,-31.73242 l -16.084,-33.79493 c -11.3809,-19.37843 1.1907,-58.34004 1.2285,-60.18554 0.01,-1.01957 4.7372,-20.22425 12.4063,-37.29297 5.2747,-11.7405 9.968,-24.84604 9.2011,-29.15625 0,-26.60878 -75.539,-24.66016 -75.539,-24.66016 0,0 -1.1341,-0.0319 -3.1211,-0.0332 z m 6.1601,0.54101 29.2852,1.22852 29.0683,11.02734 3.0235,14.73243 -11.1211,8.2207 -10.0352,5.3789 -19.9804,4.9043 -20.2403,2.44141 -20.9746,-1.86719 -16.2441,-4.15625 -12.1817,-4.76953 c -4.5879,-2.36704 -9.0791,-4.86182 -12.1836,-9.20703 l -2.0781,-8.68945 10.9434,-6.68555 5.8672,-5.40235 19.2656,-4.5332 z"
               style="opacity:1;vector-effect:none;fill:#6f8a91;fill-opacity:1;stroke:#1a1a1a;stroke-width:3.25705004;stroke-linecap:butt;stroke-linejoin:miter;stroke-miterlimit:4;stroke-dasharray:none;stroke-dashoffset:0;stroke-opacity:1" />
            <path
               inkscape:connector-curvature="0"
               style="opacity:1;vector-effect:none;fill:#ffd700;fill-opacity:1;stroke:none;stroke-width:0.14362687;stroke-linecap:butt;stroke-linejoin:miter;stroke-miterlimit:4;stroke-dasharray:none;stroke-dashoffset:0;stroke-opacity:1"
               d="m -1253.8438,213.39992 c -0.4759,0.34475 -1.0309,0.69811 -1.6851,1.05616 -0.1054,0.0577 -0.2123,0.10631 -0.3181,0.16214 -0.709,4.68042 -2.672,8.30428 -3.3536,8.30428 -0.6139,0 -1.0879,-0.37976 -1.5538,-0.95911 -0.9716,-1.20797 -2.2093,-3.23964 -3.0342,-4.62411 -0.4601,0.0903 -0.9345,0.19057 -1.3579,0.25667 -0.4764,0.0744 -0.8884,0.11923 -1.3076,0.16804 2.4195,2.17558 5.8873,6.23191 4.5332,10.9162 0,0 -1.4227,5.34581 -3.3639,10.33581 -1.9863,5.10593 -1.8446,7.9213 -6.4834,10.57985 -3.5887,2.05664 -8.6467,8.73954 -10.356,11.18018 -1.5093,2.1552 -4.3175,6.6237 -8.1455,19.20335 -0.091,0.30002 -0.112,0.4243 -0.1933,0.69991 0.073,0.1556 0.1339,0.31196 0.2118,0.46735 0.2223,0.44349 0.4656,0.88635 0.7308,1.32995 0.2651,0.4436 0.5519,0.88799 0.8614,1.33444 0.2631,0.3795 0.5513,0.76169 0.8475,1.14508 0.5753,-3.80012 1.8057,-11.11525 3.3471,-15.12262 1.52,-3.95148 4.1296,-7.40496 6.5109,-10.90554 1.0672,-1.56882 1.9052,-3.44177 3.474,-4.5091 0.2852,-0.19407 0.6965,-0.46057 0.9945,-0.28669 1.956,1.14141 1.3253,4.35835 1.5742,6.60936 0.1837,1.66084 0.097,2.89954 -0.068,5.01236 -0.1352,1.73675 -0.6648,4.06757 -0.7583,5.80707 -0.3288,6.11884 -0.166,6.13268 -1.9634,14.01147 -0.7497,3.28638 -2.5402,6.41945 -3.9634,8.58002 0.056,0.0297 0.1567,0.11427 0.1952,0.12315 0.2494,0.0575 0.9347,0.096 1.8223,0.12119 0.1246,0.004 0.2944,0.003 0.4264,0.006 0.9427,-2.55934 3.668,-10.13489 4.4824,-14.50631 0.5576,-2.99312 0.017,-6.1094 0.4533,-9.12255 0.1781,-1.2289 0.3013,-3.60577 0.8786,-3.62013 0.8917,-0.0222 0.8615,-0.0263 2.245,1.34707 0,0 6.2747,7.04211 6.9937,9.86958 0.8471,3.33143 1.4976,6.70898 1.4433,11.89045 -0.015,1.43035 -0.01,2.43729 -0.01,3.34858 0.2307,-0.19421 0.456,-0.3816 0.7391,-0.64184 0.3973,-0.36516 0.8909,-0.86692 1.3485,-1.31395 -0.6374,-3.9674 -1.4521,-9.25011 -0.7566,-10.08474 0.6375,-0.765 4.6825,1.38179 7.4033,2.93902 0.1723,-0.23227 0.3555,-0.46587 0.5156,-0.69682 0.2474,-0.35691 0.47,-0.7119 0.6889,-1.06682 l -3.045,-1.05588 c -3.3867,-1.17407 -4.7015,-2.26112 -5.8867,-3.52307 -0.5789,-0.6164 -0.6928,-0.94895 -1.4361,-1.6792 -0.4462,-0.43842 -1.1296,-1.30557 -1.5498,-1.8346 -2.7462,-3.45683 -5.9423,-6.60809 -7.5393,-10.65532 -1.2255,-3.10582 -1.4375,-9.11901 -1.3569,-9.92428 0.272,-2.71674 2.4167,-4.33043 4.7473,-8.78929 1.6318,-2.68349 1.544,-4.38189 3.1684,-9.05775 0.3367,-0.9689 1.1529,-3.04235 1.6658,-4.52818 1.3128,-3.80264 3.3912,-7.72397 5.087,-11.42759 0.66,-1.44168 1.4668,-4.431 2.0893,-6.86912 z"
               id="path1749" />
            <path
               inkscape:connector-curvature="0"
               id="path1751"
               d="m -1253.8438,213.39992 c -0.4759,0.34475 -1.0309,0.69811 -1.6851,1.05616 -0.1054,0.0577 -0.2123,0.10631 -0.3181,0.16214 -0.709,4.68042 -2.672,8.30428 -3.3536,8.30428 -0.6139,0 -1.0879,-0.37976 -1.5538,-0.95911 -0.9716,-1.20797 -2.2093,-3.23964 -3.0342,-4.62411 -0.4601,0.0903 -0.9345,0.19057 -1.3579,0.25667 -0.4764,0.0744 -0.8884,0.11923 -1.3076,0.16804 2.4195,2.17558 5.8873,6.23191 4.5332,10.9162 0,0 -1.4227,5.34581 -3.3639,10.33581 -1.9863,5.10593 -1.8446,7.9213 -6.4834,10.57985 -3.5887,2.05664 -8.6467,8.73954 -10.356,11.18018 -1.5093,2.1552 -4.3175,6.6237 -8.1455,19.20335 -0.091,0.30002 -0.112,0.4243 -0.1933,0.69991 0.073,0.1556 0.1339,0.31196 0.2118,0.46735 0.2223,0.44349 0.4656,0.88635 0.7308,1.32995 0.2651,0.4436 0.5519,0.88799 0.8614,1.33444 0.2631,0.3795 0.5513,0.76169 0.8475,1.14508 0.5753,-3.80012 1.8057,-11.11525 3.3471,-15.12262 1.52,-3.95148 4.1296,-7.40496 6.5109,-10.90554 1.0672,-1.56882 1.9052,-3.44177 3.474,-4.5091 0.2852,-0.19407 0.6965,-0.46057 0.9945,-0.28669 1.956,1.14141 1.3253,4.35835 1.5742,6.60936 0.1837,1.66084 0.097,2.89954 -0.068,5.01236 -0.1352,1.73675 -0.6648,4.06757 -0.7583,5.80707 -0.3288,6.11884 -0.166,6.13268 -1.9634,14.01147 -0.7497,3.28638 -2.5402,6.41945 -3.9634,8.58002 0.056,0.0297 0.1567,0.11427 0.1952,0.12315 0.2494,0.0575 0.9347,0.096 1.8223,0.12119 0.1246,0.004 0.2944,0.003 0.4264,0.006 0.9427,-2.55934 3.668,-10.13489 4.4824,-14.50631 0.5576,-2.99312 0.017,-6.1094 0.4533,-9.12255 0.1781,-1.2289 0.3013,-3.60577 0.8786,-3.62013 0.8917,-0.0222 0.8615,-0.0263 2.245,1.34707 0,0 6.2747,7.04211 6.9937,9.86958 0.8471,3.33143 1.4976,6.70898 1.4433,11.89045 -0.015,1.43035 -0.01,2.43729 -0.01,3.34858 0.2307,-0.19421 0.456,-0.3816 0.7391,-0.64184 0.3973,-0.36516 0.8909,-0.86692 1.3485,-1.31395 -0.6374,-3.9674 -1.4521,-9.25011 -0.7566,-10.08474 0.6375,-0.765 4.6825,1.38179 7.4033,2.93902 0.1723,-0.23227 0.3555,-0.46587 0.5156,-0.69682 0.2474,-0.35691 0.47,-0.7119 0.6889,-1.06682 l -3.045,-1.05588 c -3.3867,-1.17407 -4.7015,-2.26112 -5.8867,-3.52307 -0.5789,-0.6164 -0.6928,-0.94895 -1.4361,-1.6792 -0.4462,-0.43842 -1.1296,-1.30557 -1.5498,-1.8346 -2.7462,-3.45683 -5.9423,-6.60809 -7.5393,-10.65532 -1.2255,-3.10582 -1.4375,-9.11901 -1.3569,-9.92428 0.272,-2.71674 2.4167,-4.33043 4.7473,-8.78929 1.6318,-2.68349 1.544,-4.38189 3.1684,-9.05775 0.3367,-0.9689 1.1529,-3.04235 1.6658,-4.52818 1.3128,-3.80264 3.3912,-7.72397 5.087,-11.42759 0.66,-1.44168 1.4668,-4.431 2.0893,-6.86912 z"
               style="opacity:1;vector-effect:none;fill:none;fill-opacity:1;stroke:none;stroke-width:0.14362687;stroke-linecap:butt;stroke-linejoin:miter;stroke-miterlimit:4;stroke-dasharray:none;stroke-dashoffset:0;stroke-opacity:1" />
            <g
               transform="matrix(0.54284167,0,0,0.54284167,-1031.8865,333.44054)"
               id="g1757"
               style="stroke:#1a1a1a;stroke-opacity:1">
              <path
                 sodipodi:nodetypes="csccsc"
                 inkscape:connector-curvature="0"
                 id="path1753"
                 d="m -469.50854,-230.74099 c 0,0 -3.95616,6.21278 5.8003,11.55274 11.23193,6.14753 23.17528,6.49042 25.36277,6.48733 1.13573,0.0246 1.27974,0.0141 1.27974,0.0141 0,0 13.20297,0.25463 25.54671,-6.50143 9.75643,-5.33996 5.28792,-11.49973 5.28792,-11.49973"
                 style="opacity:1;vector-effect:none;fill:none;fill-opacity:1;stroke:#1a1a1a;stroke-width:2.11666679;stroke-linecap:butt;stroke-linejoin:round;stroke-miterlimit:4;stroke-dasharray:none;stroke-dashoffset:0;stroke-opacity:1" />
              <path
                 id="path1755"
                 d="m -469.17273,-224.84678 c 0.95295,-1.52496 2.63003,-3.15 5.46449,-4.70136 11.23193,-6.14754 23.17528,-6.49042 25.36277,-6.48733 1.13573,-0.0246 1.27974,-0.0141 1.27974,-0.0141 0,0 13.20297,-0.25463 25.54671,6.50143 3.08724,1.68972 4.75898,3.4633 5.60194,5.09848"
                 style="opacity:1;vector-effect:none;fill:none;fill-opacity:1;stroke:#1a1a1a;stroke-width:2.11666679;stroke-linecap:butt;stroke-linejoin:round;stroke-miterlimit:4;stroke-dasharray:none;stroke-dashoffset:0;stroke-opacity:1"
                 inkscape:connector-curvature="0" />
            </g>
            <path
               inkscape:connector-curvature="0"
               id="path1759"
               d="m -1261.3958,205.6278 1.1448,1.09908 5.4792,2.27839 -0.7428,0.33915 c 0,0 4.124,2.01407 -0.058,4.64207 -0.6743,0.50981 -1.0078,0.89177 -1.1277,1.18661 0.055,-0.0256 0.1093,-0.0469 0.1641,-0.0729 0.4206,-0.20045 0.8411,-0.41486 1.2598,-0.64408 0.331,-0.18117 0.632,-0.36406 0.9055,-0.54785 0.2736,-0.1838 0.5197,-0.36864 0.7406,-0.55319 0.2209,-0.18456 0.4167,-0.36889 0.59,-0.55235 0.1732,-0.18346 0.3239,-0.36595 0.4544,-0.54645 0.1305,-0.18051 0.2406,-0.35899 0.3332,-0.53468 0.093,-0.17568 0.1676,-0.34855 0.2273,-0.51756 0.06,-0.16901 0.1039,-0.33436 0.1355,-0.49484 0.014,-0.0708 0.024,-0.14037 0.034,-0.20927 l 0.2318,-0.46342 v -1.41046 c -0.062,-0.0492 -0.1168,-0.10173 -0.1816,-0.14952 -0.3806,-0.28066 -0.8102,-0.53769 -1.2786,-0.77311 -0.4684,-0.23543 -0.9758,-0.44938 -1.5126,-0.64352 -0.5367,-0.19413 -1.1026,-0.36836 -1.6881,-0.52513 -0.5855,-0.15678 -1.1907,-0.29602 -1.8055,-0.41938 -0.6148,-0.12337 -1.2392,-0.23095 -1.8638,-0.32484 -0.4906,-0.0738 -0.9554,-0.10496 -1.4413,-0.16271 z m -17.7906,0.11866 c -0.1274,0.0187 -0.247,0.0241 -0.3745,0.044 -0.6008,0.0939 -1.2017,0.20148 -1.7931,0.32485 -0.5914,0.12336 -1.1735,0.2626 -1.7367,0.41937 -0.5633,0.15678 -1.1079,0.33101 -1.6242,0.52514 -0.5163,0.19413 -1.0045,0.40809 -1.4551,0.64351 -0.4506,0.23543 -0.8637,0.49246 -1.2298,0.77312 -0.1103,0.0845 -0.2073,0.17566 -0.3089,0.26453 l 0.3297,1.07832 0.1972,0.20647 c 0.01,0.068 0.01,0.13701 0.015,0.20759 0.016,0.15068 0.042,0.30684 0.08,0.4679 0.039,0.16108 0.09,0.32695 0.1565,0.49653 0.066,0.16957 0.1478,0.34304 0.2466,0.51924 0.099,0.17621 0.2148,0.35513 0.3506,0.53608 0.1359,0.18095 0.2914,0.36375 0.4691,0.54757 0.1776,0.18383 0.3773,0.36866 0.6014,0.55347 0.2241,0.18483 0.4727,0.36982 0.7479,0.55376 0.2752,0.18393 0.577,0.36696 0.908,0.54813 0.4627,0.25326 0.9278,0.45528 1.3925,0.67353 -0.135,-0.28955 -0.4623,-0.65697 -1.1053,-1.14312 -4.1817,-2.628 -0.057,-4.64207 -0.057,-4.64207 l -0.414,-0.18907 0.698,-0.52962 5.8056,-1.89885 z"
               style="opacity:1;vector-effect:none;fill:#1a1a1a;fill-opacity:1;stroke:none;stroke-width:0.02872537;stroke-linecap:butt;stroke-linejoin:miter;stroke-miterlimit:4;stroke-dasharray:none;stroke-dashoffset:0;stroke-opacity:1" />
            <path
               sodipodi:nodetypes="scscccscccscccscscs"
               inkscape:connector-curvature="0"
               id="path1761"
               d="m -1278.4685,294.27565 c -0.9974,-0.2302 -8.0566,-7.74972 -8.0566,-7.74972 -6.4453,-7.36607 -6.7202,-13.48931 -3.967,-23.98973 0.2797,-1.06709 3.1044,-8.39625 3.1044,-8.39625 l 4.2558,-8.94154 c 3.0113,-5.12721 -0.3222,-15.43591 -0.3254,-15.9242 0,-0.26976 -1.2533,-5.35058 -3.2824,-9.86668 -1.3957,-3.10634 -2.6372,-6.5742 -2.4344,-7.71461 0,-7.04024 19.2265,-6.52474 19.2265,-6.52474 0,0 19.9861,-0.5155 19.9861,6.52474 0.2029,1.14041 -1.0387,4.60827 -2.4343,7.71461 -2.0291,4.5161 -3.2805,9.59692 -3.2824,9.86668 -0.01,0.48829 -3.3367,10.79699 -0.3255,15.9242 l 4.2559,8.94154 c 0,0 2.8246,7.32916 3.1044,8.39625 2.7531,10.50042 2.4783,16.62366 -3.9671,23.98973 0,0 -7.0591,7.51952 -8.0566,7.74972 -0.9975,0.23019 -8.8329,0.15346 -8.8329,0.15346 0,0 -7.9709,0.0767 -8.9685,-0.15346 z"
               style="opacity:1;vector-effect:none;fill:none;fill-opacity:1;stroke:#1a1a1a;stroke-width:0.86176115;stroke-linecap:butt;stroke-linejoin:miter;stroke-miterlimit:4;stroke-dasharray:none;stroke-dashoffset:0;stroke-opacity:1" />
          </g>
        </g>
        <text
           xml:space="preserve"
           style="font-style:normal;font-variant:normal;font-weight:normal;font-stretch:normal;font-size:64.45996094px;line-height:1.25;font-family:Montserrat;-inkscape-font-specification:Montserrat;letter-spacing:11.90783405px;word-spacing:0px;fill:#1a1a1a;fill-opacity:1;stroke:none;stroke-width:1.93379855"
           x="-1214.7085"
           y="293.96579"
           id="text1769"><tspan
             sodipodi:role="line"
             id="tspan1767"
             x="-1214.7085"
             y="293.96579"
             style="font-style:normal;font-variant:normal;font-weight:bold;font-stretch:normal;font-size:116.02790833px;font-family:Montserrat;-inkscape-font-specification:'Montserrat Bold';letter-spacing:11.90783405px;fill:#1a1a1a;stroke-width:1.93379855">RAKU</tspan></text>
      </g>
    </g>
  </g>
</svg>
