<?xml version="1.0" encoding="UTF-8" standalone="no"?>
<!-- Created with Inkscape (http://www.inkscape.org/) -->

<svg
   xmlns:dc="http://purl.org/dc/elements/1.1/"
   xmlns:cc="http://creativecommons.org/ns#"
   xmlns:rdf="http://www.w3.org/1999/02/22-rdf-syntax-ns#"
   xmlns:svg="http://www.w3.org/2000/svg"
   xmlns="http://www.w3.org/2000/svg"
   xmlns:sodipodi="http://sodipodi.sourceforge.net/DTD/sodipodi-0.dtd"
   xmlns:inkscape="http://www.inkscape.org/namespaces/inkscape"
   width="8.5in"
   height="11in"
   viewBox="0 0 215.9 279.40001"
   version="1.1"
   id="svg8"
   sodipodi:docname="raku-logo-v1.svg"
   inkscape:version="0.92.4 5da689c313, 2019-01-14">
  <defs
     id="defs2" />
  <sodipodi:namedview
     id="base"
     pagecolor="#ffffff"
     bordercolor="#484848"
     borderopacity="1"
     inkscape:pageopacity="0.0"
     inkscape:pageshadow="2"
     inkscape:zoom="0.46796261"
     inkscape:cx="126.11481"
     inkscape:cy="513.59992"
     inkscape:document-units="px"
     inkscape:current-layer="layer1"
     showgrid="false"
     units="in"
     inkscape:showpageshadow="false"
     inkscape:pagecheckerboard="true"
     inkscape:window-width="1598"
     inkscape:window-height="872"
     inkscape:window-x="1"
     inkscape:window-y="27"
     inkscape:window-maximized="0"
     inkscape:snap-page="true" />
  <metadata
     id="metadata5">
    <rdf:RDF>
      <cc:Work
         rdf:about="">
        <dc:format>image/svg+xml</dc:format>
        <dc:type
           rdf:resource="http://purl.org/dc/dcmitype/StillImage" />
        <dc:title></dc:title>
        <cc:license
           rdf:resource="http://creativecommons.org/licenses/by-nc-sa/4.0/" />
        <dc:creator>
          <cc:Agent>
            <dc:title>Luis F. Uceta</dc:title>
          </cc:Agent>
        </dc:creator>
      </cc:Work>
      <cc:License
         rdf:about="http://creativecommons.org/licenses/by-nc-sa/4.0/">
        <cc:permits
           rdf:resource="http://creativecommons.org/ns#Reproduction" />
        <cc:permits
           rdf:resource="http://creativecommons.org/ns#Distribution" />
        <cc:requires
           rdf:resource="http://creativecommons.org/ns#Notice" />
        <cc:requires
           rdf:resource="http://creativecommons.org/ns#Attribution" />
        <cc:prohibits
           rdf:resource="http://creativecommons.org/ns#CommercialUse" />
        <cc:permits
           rdf:resource="http://creativecommons.org/ns#DerivativeWorks" />
        <cc:requires
           rdf:resource="http://creativecommons.org/ns#ShareAlike" />
      </cc:License>
    </rdf:RDF>
  </metadata>
  <g
     inkscape:label="Layer 1"
     inkscape:groupmode="layer"
     id="layer1"
     transform="translate(0,-17.599989)">
    <g
       id="g873">
      <rect
         y="17.599989"
         x="0"
         height="279.39999"
         width="215.90001"
         id="rect31"
         style="opacity:1;vector-effect:none;fill:none;fill-opacity:1;stroke:none;stroke-width:0.26458335;stroke-linecap:round;stroke-linejoin:round;stroke-miterlimit:4;stroke-dasharray:none;stroke-dashoffset:0;stroke-opacity:0.9832215;paint-order:stroke fill markers" />
      <g
         transform="translate(-5.3807555e-6,1.2618733e-5)"
         id="g862">
        <path
           inkscape:connector-curvature="0"
           style="opacity:1;vector-effect:none;fill:#ffd700;fill-opacity:1;stroke:none;stroke-width:0.26458248;stroke-linecap:butt;stroke-linejoin:miter;stroke-miterlimit:4;stroke-dasharray:none;stroke-dashoffset:0;stroke-opacity:1"
           d="m 136.91586,90.245298 c -0.87668,0.635084 -1.89907,1.286029 -3.1042,1.945614 -0.19416,0.106292 -0.39109,0.19584 -0.58599,0.298687 -1.30608,8.622071 -4.92221,15.297791 -6.17781,15.297791 -1.1309,0 -2.00408,-0.69957 -2.86233,-1.76683 -1.78983,-2.22527 -4.06985,-5.96793 -5.58944,-8.518338 -0.84757,0.166346 -1.72148,0.35106 -2.50145,0.472826 -0.8776,0.137057 -1.63656,0.219641 -2.40879,0.309557 4.45707,4.007765 10.84527,11.480165 8.35082,20.109365 0,0 -2.62082,9.84782 -6.1968,19.04019 -3.65905,9.40593 -3.39802,14.59229 -11.94336,19.48976 -6.610912,3.78865 -15.928484,16.09961 -19.077264,20.59565 -2.78035,3.97022 -7.953463,12.20191 -15.005197,35.37561 -0.167635,0.55268 -0.20632,0.78162 -0.356086,1.28934 0.134476,0.28664 0.246663,0.57468 0.390166,0.86093 0.409509,0.81698 0.857703,1.6328 1.34624,2.44998 0.488353,0.81718 1.01668,1.63582 1.586824,2.45825 0.484669,0.6991 1.015575,1.40315 1.561219,2.10942 1.059786,-7.00042 3.326362,-20.47605 6.165845,-27.85825 2.800061,-7.27925 7.607325,-13.64111 11.994026,-20.08973 1.965938,-2.89002 3.509656,-6.34029 6.399614,-8.30648 0.52538,-0.3575 1.283053,-0.84844 1.832013,-0.52812 3.60324,2.10265 2.4414,8.02877 2.89991,12.17548 0.3384,3.05953 0.17868,5.34141 -0.12527,9.23356 -0.24906,3.19937 -1.22466,7.49311 -1.3969,10.69754 -0.6057,11.27187 -0.30579,11.29736 -3.616867,25.81134 -1.381057,6.05403 -4.679419,11.82564 -7.30116,15.80575 0.10316,0.0547 0.288664,0.2105 0.359587,0.22686 0.459431,0.10593 1.721853,0.17685 3.356941,0.22325 0.229532,0.007 0.542328,0.006 0.785491,0.0111 1.736591,-4.71471 6.756988,-18.67007 8.257238,-26.72292 1.02718,-5.5138 0.0313,-11.25448 0.83504,-16.80517 0.32809,-2.26383 0.55504,-6.6424 1.61851,-6.66886 1.64264,-0.0409 1.58701,-0.0484 4.13562,2.48152 0,0 11.55891,12.97268 12.88341,18.18133 1.56048,6.13702 2.7588,12.359 2.65877,21.90408 -0.0276,2.63493 -0.0184,4.48987 -0.0184,6.16861 0.42498,-0.35776 0.84002,-0.70296 1.36153,-1.18237 0.73188,-0.67268 1.64116,-1.597 2.48413,-2.4205 -1.17418,-7.30858 -2.67498,-17.04016 -1.39377,-18.57768 1.17437,-1.40925 8.62585,2.54547 13.63796,5.41414 0.3174,-0.42788 0.65488,-0.85821 0.94981,-1.28366 0.45575,-0.65748 0.86581,-1.31143 1.26905,-1.96525 l -5.60933,-1.94509 c -6.23879,-2.16283 -8.66085,-4.16534 -10.84416,-6.49006 -1.06642,-1.1355 -1.27624,-1.74811 -2.6455,-3.09335 -0.82197,-0.80764 -2.08089,-2.40506 -2.85496,-3.37962 -5.0589,-6.36803 -10.94658,-12.17315 -13.88849,-19.62878 -2.25755,-5.72141 -2.64808,-16.79866 -2.49961,-18.28209 0.50107,-5.00467 4.45192,-7.97734 8.74522,-16.19126 3.00601,-4.94342 2.84427,-8.07214 5.83666,-16.68581 0.62025,-1.78487 2.12381,-5.60449 3.06864,-8.34162 2.41837,-7.00506 6.24709,-14.22877 9.371,-21.05143 1.21581,-2.6558 2.70206,-8.162598 3.84879,-12.654 z"
           id="path1861" />
        <path
           inkscape:connector-curvature="0"
           id="path1863"
           d="m 136.91586,90.245298 c -0.87668,0.635084 -1.89907,1.286029 -3.1042,1.945614 -0.19416,0.106292 -0.39109,0.19584 -0.58599,0.298687 -1.30608,8.622071 -4.92221,15.297791 -6.17781,15.297791 -1.1309,0 -2.00408,-0.69957 -2.86233,-1.76683 -1.78983,-2.22527 -4.06985,-5.96793 -5.58944,-8.518338 -0.84757,0.166346 -1.72148,0.35106 -2.50145,0.472826 -0.8776,0.137057 -1.63656,0.219641 -2.40879,0.309557 4.45707,4.007765 10.84527,11.480165 8.35082,20.109365 0,0 -2.62082,9.84782 -6.1968,19.04019 -3.65905,9.40593 -3.39802,14.59229 -11.94336,19.48976 -6.610912,3.78865 -15.928484,16.09961 -19.077264,20.59565 -2.78035,3.97022 -7.953463,12.20191 -15.005197,35.37561 -0.167635,0.55268 -0.20632,0.78162 -0.356086,1.28934 0.134476,0.28664 0.246663,0.57468 0.390166,0.86093 0.409509,0.81698 0.857703,1.6328 1.34624,2.44998 0.488353,0.81718 1.01668,1.63582 1.586824,2.45825 0.484669,0.6991 1.015575,1.40315 1.561219,2.10942 1.059786,-7.00042 3.326362,-20.47605 6.165845,-27.85825 2.800061,-7.27925 7.607325,-13.64111 11.994026,-20.08973 1.965938,-2.89002 3.509656,-6.34029 6.399614,-8.30648 0.52538,-0.3575 1.283053,-0.84844 1.832013,-0.52812 3.60324,2.10265 2.4414,8.02877 2.89991,12.17548 0.3384,3.05953 0.17868,5.34141 -0.12527,9.23356 -0.24906,3.19937 -1.22466,7.49311 -1.3969,10.69754 -0.6057,11.27187 -0.30579,11.29736 -3.616867,25.81134 -1.381057,6.05403 -4.679419,11.82564 -7.30116,15.80575 0.10316,0.0547 0.288664,0.2105 0.359587,0.22686 0.459431,0.10593 1.721853,0.17685 3.356941,0.22325 0.229532,0.007 0.542328,0.006 0.785491,0.0111 1.736591,-4.71471 6.756988,-18.67007 8.257238,-26.72292 1.02718,-5.5138 0.0313,-11.25448 0.83504,-16.80517 0.32809,-2.26383 0.55504,-6.6424 1.61851,-6.66886 1.64264,-0.0409 1.58701,-0.0484 4.13562,2.48152 0,0 11.55891,12.97268 12.88341,18.18133 1.56048,6.13702 2.7588,12.359 2.65877,21.90408 -0.0276,2.63493 -0.0184,4.48987 -0.0184,6.16861 0.42498,-0.35776 0.84002,-0.70296 1.36153,-1.18237 0.73188,-0.67268 1.64116,-1.597 2.48413,-2.4205 -1.17418,-7.30858 -2.67498,-17.04016 -1.39377,-18.57768 1.17437,-1.40925 8.62585,2.54547 13.63796,5.41414 0.3174,-0.42788 0.65488,-0.85821 0.94981,-1.28366 0.45575,-0.65748 0.86581,-1.31143 1.26905,-1.96525 l -5.60933,-1.94509 c -6.23879,-2.16283 -8.66085,-4.16534 -10.84416,-6.49006 -1.06642,-1.1355 -1.27624,-1.74811 -2.6455,-3.09335 -0.82197,-0.80764 -2.08089,-2.40506 -2.85496,-3.37962 -5.0589,-6.36803 -10.94658,-12.17315 -13.88849,-19.62878 -2.25755,-5.72141 -2.64808,-16.79866 -2.49961,-18.28209 0.50107,-5.00467 4.45192,-7.97734 8.74522,-16.19126 3.00601,-4.94342 2.84427,-8.07214 5.83666,-16.68581 0.62025,-1.78487 2.12381,-5.60449 3.06864,-8.34162 2.41837,-7.00506 6.24709,-14.22877 9.371,-21.05143 1.21581,-2.6558 2.70206,-8.162598 3.84879,-12.654 z"
           style="opacity:1;vector-effect:none;fill:none;fill-opacity:1;stroke:none;stroke-width:0.26458248;stroke-linecap:butt;stroke-linejoin:miter;stroke-miterlimit:4;stroke-dasharray:none;stroke-dashoffset:0;stroke-opacity:1" />
        <g
           transform="matrix(0.99999339,0,0,1.0000001,545.79352,311.37907)"
           id="g1869"
           style="stroke:#1a1a1a;stroke-opacity:1">
          <path
             sodipodi:nodetypes="csccsc"
             inkscape:connector-curvature="0"
             id="path1865"
             d="m -469.50854,-230.74099 c 0,0 -3.95616,6.21278 5.8003,11.55274 11.23193,6.14753 23.17528,6.49042 25.36277,6.48733 1.13573,0.0246 1.27974,0.0141 1.27974,0.0141 0,0 13.20297,0.25463 25.54671,-6.50143 9.75643,-5.33996 5.28792,-11.49973 5.28792,-11.49973"
             style="opacity:1;vector-effect:none;fill:none;fill-opacity:1;stroke:#1a1a1a;stroke-width:2.11666679;stroke-linecap:butt;stroke-linejoin:round;stroke-miterlimit:4;stroke-dasharray:none;stroke-dashoffset:0;stroke-opacity:1" />
          <path
             id="path1867"
             d="m -469.17273,-224.84678 c 0.95295,-1.52496 2.63003,-3.15 5.46449,-4.70136 11.23193,-6.14754 23.17528,-6.49042 25.36277,-6.48733 1.13573,-0.0246 1.27974,-0.0141 1.27974,-0.0141 0,0 13.20297,-0.25463 25.54671,6.50143 3.08724,1.68972 4.75898,3.4633 5.60194,5.09848"
             style="opacity:1;vector-effect:none;fill:none;fill-opacity:1;stroke:#1a1a1a;stroke-width:2.11666679;stroke-linecap:butt;stroke-linejoin:round;stroke-miterlimit:4;stroke-dasharray:none;stroke-dashoffset:0;stroke-opacity:1"
             inkscape:connector-curvature="0" />
        </g>
        <path
           inkscape:connector-curvature="0"
           id="path1871"
           d="m 123.00398,75.927826 2.10889,2.024679 10.09348,4.197154 -1.36835,0.624768 c 0,0 7.59701,3.710235 -0.10684,8.551426 -1.24216,0.939151 -1.85651,1.642781 -2.07739,2.185923 0.10132,-0.04716 0.20135,-0.0864 0.3023,-0.134293 0.7748,-0.369261 1.54943,-0.764238 2.32073,-1.186497 0.60975,-0.333744 1.16424,-0.670656 1.66807,-1.009227 0.50401,-0.338588 0.95736,-0.679093 1.36429,-1.019063 0.40693,-0.339989 0.76762,-0.679554 1.08686,-1.017516 0.31906,-0.337962 0.59668,-0.674137 0.83708,-1.006647 0.2404,-0.332528 0.44322,-0.661316 0.6138,-0.984965 0.17132,-0.32363 0.30874,-0.642084 0.41872,-0.953427 0.11053,-0.311343 0.1914,-0.615944 0.24961,-0.911574 0.0258,-0.130424 0.0442,-0.258583 0.0626,-0.385508 l 0.42701,-0.853693 v -2.59829 c -0.11421,-0.09063 -0.21516,-0.187403 -0.33453,-0.275439 -0.70112,-0.51702 -1.49251,-0.99051 -2.35537,-1.424191 -0.86286,-0.433699 -1.79757,-0.827829 -2.78643,-1.185465 -0.98868,-0.357619 -2.03115,-0.678578 -3.10973,-0.967373 -1.07857,-0.288813 -2.19344,-0.545315 -3.32599,-0.772564 -1.13255,-0.227267 -2.28279,-0.425446 -3.43339,-0.598407 -0.90376,-0.135951 -1.75999,-0.193352 -2.65508,-0.299737 z m -32.772878,0.218591 c -0.23469,0.03445 -0.45501,0.0444 -0.689884,0.08106 -1.106761,0.172978 -2.213706,0.371158 -3.303151,0.598425 -1.089445,0.227248 -2.161758,0.48375 -3.199254,0.772545 -1.037681,0.288814 -2.040914,0.609773 -2.992013,0.967391 -0.9511,0.357618 -1.850436,0.751766 -2.680506,1.185447 -0.830071,0.433699 -1.591062,0.907189 -2.265471,1.424209 -0.203189,0.155663 -0.381877,0.323594 -0.569039,0.487306 l 0.607356,1.986436 0.363271,0.38035 c 0.01842,0.125267 0.01842,0.252394 0.02763,0.382414 0.02947,0.277576 0.07737,0.565248 0.147372,0.861946 0.07184,0.296734 0.165793,0.602293 0.288295,0.914686 0.121582,0.312375 0.272269,0.631934 0.454273,0.956522 0.182373,0.324607 0.395693,0.654206 0.645857,0.987544 0.250347,0.333339 0.536801,0.670085 0.86415,1.008711 0.327165,0.338644 0.695042,0.67913 1.107867,1.019579 0.412824,0.340486 0.870782,0.681267 1.37774,1.020113 0.506959,0.338828 1.062918,0.675999 1.672668,1.009742 0.852361,0.466545 1.709143,0.838698 2.565188,1.240749 -0.248689,-0.533397 -0.851624,-1.210243 -2.036123,-2.105808 -7.703301,-4.841191 -0.105003,-8.551426 -0.105003,-8.551426 l -0.762648,-0.348296 1.285818,-0.975644 10.69476,-3.497982 z"
           style="opacity:1;vector-effect:none;fill:#1a1a1a;fill-opacity:1;stroke:none;stroke-width:0.05291649;stroke-linecap:butt;stroke-linejoin:miter;stroke-miterlimit:4;stroke-dasharray:none;stroke-dashoffset:0;stroke-opacity:1" />
        <path
           sodipodi:nodetypes="scscccscccscccscscs"
           inkscape:connector-curvature="0"
           id="path1873"
           d="m 91.553578,239.23116 c -1.837356,-0.42406 -14.84143,-14.2762 -14.84143,-14.2762 -11.873181,-13.56947 -12.379587,-24.84944 -7.307792,-44.19288 0.515248,-1.96574 5.718757,-15.46721 5.718757,-15.46721 l 7.839803,-16.47173 c 5.547253,-9.44513 -0.593539,-28.43539 -0.599434,-29.33489 0,-0.49694 -2.308761,-9.85662 -6.046659,-18.17599 -2.571082,-5.722364 -4.858106,-12.11071 -4.484519,-14.211525 0,-12.969234 35.418016,-12.019601 35.418016,-12.019601 0,0 36.8173,-0.949633 36.8173,12.019601 0.37377,2.100815 -1.91343,8.489161 -4.48433,14.211525 -3.7379,8.31937 -6.04316,17.67905 -6.04666,18.17599 -0.0184,0.8995 -6.14669,19.88976 -0.59962,29.33489 l 7.83999,16.47173 c 0,0 5.20332,13.50147 5.71875,15.46721 5.07162,19.34344 4.56539,30.62341 -7.30797,44.19288 0,0 -13.00389,13.85214 -14.84143,14.2762 -1.83754,0.42405 -16.27149,0.2827 -16.27149,0.2827 0,0 -14.683558,0.14129 -16.521282,-0.2827 z"
           style="opacity:1;vector-effect:none;fill:none;fill-opacity:1;stroke:#1a1a1a;stroke-width:1.58749485;stroke-linecap:butt;stroke-linejoin:miter;stroke-miterlimit:4;stroke-dasharray:none;stroke-dashoffset:0;stroke-opacity:1" />
      </g>
    </g>
  </g>
</svg>
